<svg width="24" height="25" viewBox="0 0 24 25" fill="none" xmlns="http://www.w3.org/2000/svg">
<path d="M22.3975 0.84757L7.99806 0.84757C7.61672 0.854199 7.25324 1.01034 6.98591 1.28236C6.71858 1.55438 6.56878 1.92052 6.56878 2.30191C6.56878 2.68331 6.71858 3.04944 6.98591 3.32146C7.25324 3.59348 7.61672 3.74962 7.99806 3.75625H18.8861L0.798356 21.844C0.525574 22.1167 0.372326 22.4867 0.372326 22.8725C0.372326 23.2583 0.525573 23.6282 0.798356 23.901C1.07114 24.1738 1.44111 24.327 1.82688 24.327C2.21266 24.327 2.58263 24.1738 2.85541 23.901L20.9431 5.81331L20.9431 16.7013C20.9398 16.8944 20.9749 17.0863 21.0465 17.2657C21.1181 17.4451 21.2247 17.6084 21.36 17.7461C21.4954 17.8839 21.6569 17.9933 21.835 18.068C22.0131 18.1427 22.2043 18.1812 22.3975 18.1812C22.5906 18.1812 22.7818 18.1427 22.9599 18.068C23.1381 17.9933 23.2995 17.8839 23.4349 17.7461C23.5703 17.6084 23.6769 17.4451 23.7484 17.2657C23.82 17.0863 23.8552 16.8944 23.8518 16.7013V2.30191C23.8517 1.91621 23.6985 1.54633 23.4258 1.2736C23.153 1.00087 22.7832 0.847628 22.3975 0.84757Z" fill="white"/>
</svg>
