<svg width="148" height="41" viewBox="0 0 148 41" fill="none" xmlns="http://www.w3.org/2000/svg">
<path d="M147.431 21.2388C147.027 20.8795 146.463 20.6799 145.737 20.6799C145.052 20.6799 144.407 20.7598 143.802 20.8795C143.641 20.2009 143.439 19.7618 143.197 19.5223C142.996 19.2428 142.552 19.1231 141.867 19.1231C139.771 19.1231 137.755 19.8017 135.86 21.1191C134.006 22.4364 132.474 24.153 131.345 26.3486C131.022 26.9474 130.781 27.5063 130.539 28.145C129.813 28.664 129.208 28.9035 128.644 28.9035C127.878 28.9035 127.515 28.3845 127.515 27.3067C127.515 26.9873 127.636 26.2288 127.878 25.0312C128.16 23.5143 128.281 22.5562 128.281 22.157C128.281 20.2009 127.273 19.2029 125.298 19.2029C124.29 19.2029 123.161 19.5622 121.952 20.2408C120.742 20.9195 119.533 22.1171 118.283 23.7538C117.033 25.3905 115.904 27.5063 114.897 30.1011C115.018 28.7837 115.179 27.626 115.34 26.7478C115.542 25.8296 115.784 24.7917 116.066 23.5542C116.509 21.8376 116.751 20.7598 116.751 20.2807C116.751 19.8416 116.63 19.5622 116.388 19.4025C116.146 19.2428 115.703 19.163 115.098 19.163C113.969 19.163 113.082 19.3626 112.437 19.8017C111.833 20.2009 111.389 20.8396 111.107 21.7179C110.462 23.7538 110.019 25.8696 109.736 28.0252C108.97 28.5841 108.325 28.8636 107.761 28.8636C106.995 28.8636 106.632 28.3446 106.632 27.2668C106.632 26.9474 106.753 26.1889 106.995 24.9913C107.277 23.4743 107.398 22.5163 107.398 22.1171C107.398 20.161 106.39 19.163 104.415 19.163C103.407 19.163 102.278 19.5223 101.069 20.2009C99.8593 20.8795 98.6498 22.0771 97.4001 23.7139C96.1503 25.3506 95.0215 27.4664 94.0136 30.0612C94.1346 28.7438 94.2959 27.5861 94.4571 26.7079C94.6184 25.8296 94.9006 24.7518 95.1828 23.5143C95.6262 21.7977 95.8681 20.7199 95.8681 20.2408C95.8681 19.8017 95.7472 19.5223 95.5053 19.3626C95.2634 19.2029 94.8199 19.1231 94.2152 19.1231C93.0864 19.1231 92.1995 19.3227 91.5545 19.7618C90.9497 20.161 90.5063 20.7997 90.2241 21.6779C89.1759 24.9514 88.6115 28.3845 88.5309 32.0173C87.4827 33.0153 86.3539 33.8935 85.0638 34.6121C83.3303 35.5702 81.758 36.0093 80.3873 36.0093C78.2506 36.0093 76.7993 35.3306 76.0333 33.9334C79.6617 33.0552 82.2015 31.8576 83.6931 30.3805C85.2251 28.8636 85.9911 27.0672 85.9911 24.9514C85.9911 23.155 85.467 21.7578 84.3785 20.7199C83.29 19.642 81.879 19.1231 80.1051 19.1231C78.1297 19.1231 76.3155 19.642 74.7433 20.7199C73.171 21.7977 71.9616 23.2348 71.0746 25.0312C70.1877 26.8276 69.7443 28.7438 69.7443 30.8596C69.7443 31.4983 69.7846 32.137 69.8652 32.7358C69.2202 33.4145 68.6155 33.9334 68.051 34.3726C67.0432 35.171 65.8741 35.5702 64.5437 35.5702C62.9311 35.5702 61.7217 34.9314 60.9557 33.654C60.23 32.3765 59.8672 30.1809 59.8672 27.0272C59.8672 26.1889 59.9075 24.9913 59.9478 23.4743H65.5515C69.0186 23.4743 70.7521 22.4364 70.7521 20.3207C70.7521 19.7618 70.6312 19.3626 70.4296 19.1231C70.228 18.9235 69.8652 18.8037 69.3814 18.8037H64.2212C68.2123 15.3306 70.1877 11.2189 70.1877 6.50828C70.1877 4.79171 69.8249 3.39451 69.0992 2.27674C68.3736 1.15898 67.3657 0.600098 66.0756 0.600098C64.3421 0.600098 62.6892 1.43842 61.1572 3.07515C59.6656 4.71187 58.3755 6.90748 57.287 9.66197C56.1986 12.4165 55.4326 15.4504 54.9085 18.8037H52.288C50.9173 18.8037 50.232 19.642 50.232 21.3586C50.232 22.0771 50.3933 22.636 50.6755 22.9554C50.998 23.2747 51.643 23.4743 52.5702 23.4743H54.3441C54.2635 24.4724 54.2231 25.4704 54.2231 26.4284C54.1425 26.3885 54.0216 26.3885 53.9006 26.3885C53.6991 26.3885 53.4975 26.4284 53.2556 26.4684C51.2802 26.9873 49.5466 27.3067 48.0953 27.3865C47.8534 25.0712 47.0068 23.1151 45.5555 21.5183C44.1445 19.9215 42.29 19.1231 39.9518 19.1231C38.057 19.1231 36.3235 19.642 34.7512 20.6799C33.1789 21.6779 31.9695 23.0751 31.0826 24.9115C30.1956 26.7079 29.7522 28.7438 29.7522 31.0592C29.7522 31.6979 29.7925 32.2967 29.8731 32.8955C28.1396 33.5342 26.5673 34.0532 25.0757 34.4125C23.06 34.8915 21.0442 35.131 19.0688 35.131C15.0777 35.131 12.0138 34.133 9.95771 32.1769C7.90166 30.1809 6.89379 27.3466 6.89379 23.7139C6.89379 20.2408 7.4582 17.2468 8.58701 14.6919C9.71582 12.137 11.2075 10.2209 13.0216 8.90349C14.8761 7.58613 16.7709 6.9474 18.7866 6.9474C21.7699 6.9474 23.2212 8.34461 23.2212 11.0991C23.2212 11.658 23.1406 12.3765 22.939 13.2947C22.8181 14.0133 22.7374 14.5322 22.7374 14.8117C22.7374 15.5702 22.9793 16.129 23.4631 16.5282C23.9469 16.9274 24.6322 17.127 25.4788 17.127C26.6883 17.127 27.6558 16.5682 28.2605 15.4504C28.9459 14.3326 29.2684 12.8556 29.2684 10.9793C29.2684 8.22485 28.4218 5.98932 26.6883 4.35259C24.9547 2.63603 22.4552 1.7977 19.1494 1.7977C15.6018 1.7977 12.3766 2.75579 9.47394 4.67195C6.57129 6.5482 4.27335 9.22285 2.53982 12.656C0.846608 16.129 0 20.0811 0 24.5123C0 27.7059 0.725667 30.5402 2.17699 32.9753C3.62832 35.4105 5.68436 37.2867 8.38544 38.6041C11.0865 39.9215 14.2311 40.5602 17.8997 40.5602C19.996 40.5602 22.2134 40.3606 24.5516 39.9215C26.8898 39.4823 29.1878 38.7638 31.3648 37.8456C31.526 37.7658 31.6873 37.6859 31.8485 37.6061C32.3726 38.2448 32.937 38.7638 33.6224 39.2428C34.9528 40.1211 36.525 40.5602 38.3392 40.5602C40.5162 40.5602 42.4513 39.8017 44.1848 38.2847C45.9183 36.7278 47.0471 34.6919 47.6115 32.137C49.8288 32.0572 51.8446 31.6979 53.6587 31.0592C53.8603 30.9793 54.0619 30.8995 54.2231 30.7398C54.9488 37.2867 58.0127 40.5602 63.4149 40.5602C65.4306 40.5602 67.2448 40.0412 68.7767 39.0033C69.6636 38.4045 70.5102 37.7258 71.3165 36.9674C71.5987 37.3266 71.8809 37.646 72.2035 37.9654C73.9773 39.6819 76.4768 40.5602 79.702 40.5602C82.0402 40.5602 84.2575 40.0013 86.3136 38.8436C87.2005 38.3646 87.9665 37.8456 88.6921 37.3266C88.7728 37.8855 88.934 38.3646 89.055 38.7239C89.5387 39.9215 90.3853 40.5602 91.5545 40.5602C92.522 40.5602 93.2074 40.3207 93.6105 39.8416C94.054 39.3227 94.4571 38.3646 94.8199 36.9274C95.2634 35.0911 95.8681 33.3346 96.5938 31.658C97.3195 29.9813 98.0451 28.664 98.8111 27.666C99.5771 26.628 100.182 26.1091 100.666 26.1091C100.988 26.1091 101.19 26.3486 101.19 26.8276C101.19 27.0272 101.149 27.4664 101.109 28.0652C101.028 28.5043 100.988 28.9833 100.988 29.4225C100.988 30.8197 101.391 31.9374 102.238 32.7358C103.084 33.5742 104.334 33.9734 105.947 33.9734C107.156 33.9734 108.285 33.6939 109.333 33.1749C109.333 35.7298 109.575 37.5662 110.019 38.7638C110.502 39.9614 111.349 40.6001 112.518 40.6001C113.486 40.6001 114.171 40.3606 114.574 39.8815C115.018 39.3626 115.421 38.4045 115.784 36.9674C116.227 35.131 116.832 33.3745 117.557 31.6979C118.283 30.0213 119.009 28.7039 119.775 27.7059C120.541 26.668 121.145 26.149 121.629 26.149C121.952 26.149 122.153 26.3885 122.153 26.8676C122.153 27.0672 122.113 27.5063 122.073 28.1051C121.992 28.5442 121.952 29.0233 121.952 29.4624C121.952 30.8596 122.355 31.9773 123.201 32.7757C124.048 33.6141 125.298 34.0133 126.91 34.0133C127.878 34.0133 128.765 33.8536 129.652 33.5342C129.692 35.6101 130.216 37.2867 131.264 38.5642C132.353 39.9215 133.804 40.6001 135.538 40.6001C137.876 40.6001 139.489 39.2827 140.456 36.6879L140.416 37.4065C140.416 38.5243 140.658 39.3626 141.141 39.8815C141.666 40.3606 142.431 40.6001 143.48 40.6001C144.568 40.6001 145.334 40.3606 145.778 39.8815C146.261 39.3626 146.503 38.5243 146.503 37.3666C146.503 35.2907 146.584 33.4145 146.785 31.7378C146.987 30.0213 147.229 28.2648 147.551 26.4284C147.874 24.7119 147.995 23.4743 147.995 22.7957C148.035 22.1171 147.834 21.5981 147.431 21.2388ZM61.6813 11.4983C62.2054 9.46237 62.7295 7.90549 63.2939 6.78772C63.8583 5.63004 64.3824 5.07116 64.8662 5.07116C65.5515 5.07116 65.8741 5.9494 65.8741 7.74581C65.8741 9.30269 65.4306 11.0991 64.5034 13.0153C63.6165 14.9314 62.2861 16.648 60.4719 18.2049C60.7944 15.7298 61.1976 13.4943 61.6813 11.4983ZM41.4434 34.6121C40.7581 35.4105 39.9115 35.8097 38.9036 35.8097C38.0167 35.8097 37.2507 35.3706 36.5653 34.4923C35.9203 33.6141 35.5978 32.3366 35.5978 30.66C35.5978 28.5442 36.0009 26.9075 36.8072 25.7498C37.6135 24.5522 38.6617 23.9933 39.8711 23.9933H40.113C40.0324 24.4724 39.9921 24.9514 39.9921 25.4304C39.9921 26.5881 40.234 27.666 40.7178 28.7039C41.2418 29.7418 41.9675 30.5801 42.9351 31.2189C42.6529 32.656 42.1691 33.8137 41.4434 34.6121ZM75.3077 30.3406C75.3077 28.5043 75.6705 26.9075 76.4365 25.63C77.2428 24.3127 78.2103 23.674 79.3391 23.674C79.9035 23.674 80.3067 23.8736 80.6292 24.2328C80.9517 24.5522 81.1533 25.0312 81.1533 25.5901C81.1533 26.7079 80.6292 27.7059 79.581 28.5442C78.5329 29.3825 77.1218 30.0213 75.3077 30.4604V30.3406ZM141.545 27.9055C140.98 30.9394 140.375 33.0552 139.65 34.2129C138.964 35.4105 138.158 35.9694 137.312 35.9694C136.747 35.9694 136.263 35.7298 135.901 35.2907C135.578 34.8117 135.376 34.0931 135.376 33.2149C135.376 31.4983 135.699 29.9015 136.344 28.3845C136.989 26.8676 137.836 25.67 138.924 24.7518C140.013 23.7937 141.141 23.3147 142.431 23.3147L141.545 27.9055Z" fill="#F1F3F5"/>
</svg>
