<svg width="32" height="33" viewBox="0 0 32 33" fill="none" xmlns="http://www.w3.org/2000/svg">
<path d="M32 0.599976H24.3328V13.0415C24.3317 13.257 24.276 13.4687 24.1707 13.6568C24.0655 13.8449 23.9143 14.0031 23.7312 14.1168C23.5514 14.2369 23.343 14.3073 23.1271 14.3208C22.9113 14.3343 22.6958 14.2904 22.5024 14.1936L16.0896 11.1855L9.66399 14.1936C9.46972 14.2839 9.25586 14.324 9.04206 14.3101C8.82825 14.2963 8.62137 14.2289 8.4404 14.1142C8.25944 13.9995 8.11021 13.8411 8.00642 13.6537C7.90263 13.4663 7.84761 13.2558 7.84643 13.0415V0.599976H0V32.6H32V0.599976ZM29.4144 28.5936H23.7696C23.4342 28.5874 23.1146 28.4499 22.8795 28.2105C22.6445 27.9711 22.5128 27.649 22.5128 27.3135C22.5128 26.9781 22.6445 26.656 22.8796 26.4166C23.1146 26.1772 23.4343 26.0397 23.7697 26.0336H29.4144C29.7511 26.0377 30.0727 26.1743 30.3094 26.4139C30.5461 26.6535 30.6789 26.9768 30.6789 27.3136C30.6789 27.6504 30.5461 27.9736 30.3094 28.2132C30.0727 28.4528 29.7511 28.5895 29.4144 28.5936Z" fill="#184456"/>
<path d="M16.0897 8.49756C16.2777 8.31095 21.4978 10.955 21.7729 11.0319V0.599976H10.4065V11.0319C10.6023 10.983 16.077 8.23281 16.0897 8.49756Z" fill="#184456"/>
</svg>
