<svg width="48" height="33" viewBox="0 0 48 33" fill="none" xmlns="http://www.w3.org/2000/svg">
<path fill-rule="evenodd" clip-rule="evenodd" d="M24.1592 15.7648L14.2524 1.24623C13.976 0.841998 13.518 0.600161 13.0283 0.599976H1.48188C0.663786 0.600161 0.00067862 1.26355 0.000771207 2.08174C0.000863794 2.37959 0.0906731 2.67059 0.258626 2.91659L9.59611 16.6L0.258811 30.2835C-0.20292 30.9582 -0.0302454 31.8796 0.644528 32.3413C0.89118 32.5101 1.18301 32.6003 1.48188 32.6H13.0284C13.5182 32.6002 13.9763 32.3582 14.2524 31.9537L24.1592 17.4352C24.5035 16.9316 24.5035 16.2684 24.1592 15.7648ZM47.1476 15.7648C47.491 16.2686 47.491 16.9313 47.1476 17.4351L37.2397 31.9536C36.9639 32.358 36.5062 32.5998 36.0168 32.5999H24.4701C23.6519 32.6001 22.9885 31.937 22.9884 31.1189C22.9883 30.8207 23.0782 30.5295 23.2462 30.2834L32.5837 16.5999L23.2462 2.9165C22.7849 2.24071 22.9589 1.31901 23.6346 0.85783C23.8809 0.689785 24.1722 0.599883 24.4703 0.599976H36.0168C36.5062 0.600439 36.9639 0.842275 37.2401 1.24623L47.1476 15.7648Z" fill="#184456"/>
</svg>
