<svg width="36" height="33" viewBox="0 0 36 33" fill="none" xmlns="http://www.w3.org/2000/svg">
<path d="M33.1147 3.73159C31.2528 1.71218 28.698 0.599976 25.9203 0.599976C23.8441 0.599976 21.9427 1.25637 20.2688 2.55079C19.4241 3.20417 18.6588 4.00354 17.984 4.93654C17.3095 4.00381 16.5439 3.20417 15.699 2.55079C14.0253 1.25637 12.1239 0.599976 10.0477 0.599976C7.27006 0.599976 4.71499 1.71218 2.85309 3.73159C1.01341 5.72741 0 8.45399 0 11.4094C0 14.4513 1.13361 17.2358 3.56739 20.1726C5.74459 22.7995 8.87373 25.4663 12.4974 28.5543C13.7347 29.6089 15.1372 30.8042 16.5936 32.0775C16.9783 32.4145 17.472 32.6 17.984 32.6C18.4958 32.6 18.9897 32.4145 19.3739 32.078C20.8302 30.8045 22.2336 29.6086 23.4715 28.5535C27.0946 25.466 30.2237 22.7995 32.4009 20.1723C34.8347 17.2358 35.968 14.4513 35.968 11.4092C35.968 8.45399 34.9546 5.72741 33.1147 3.73159Z" fill="#184456"/>
</svg>
